<svg xmlns="http://www.w3.org/2000/svg" version="1.1" xmlns:xlink="http://www.w3.org/1999/xlink" width="512" height="512" x="0" y="0" viewBox="0 0 32 32" style="enable-background:new 0 0 512 512" xml:space="preserve" class=""><g><path d="m30 16-4.788 4.788A.71.71 0 0 1 24 20.286V17.5h-6.5V24h2.786a.71.71 0 0 1 .502 1.212L16 30l-4.788-4.788A.71.71 0 0 1 11.714 24H14.5v-6.5H8v2.786a.71.71 0 0 1-1.212.502L2 16l4.788-4.788A.71.71 0 0 1 8 11.714V14.5h6.5V8h-2.786a.71.71 0 0 1-.502-1.212L16 2l4.788 4.788A.71.71 0 0 1 20.286 8H17.5v6.5H24v-2.786a.71.71 0 0 1 1.212-.502z" fill="currentColor" opacity="1" data-original="currentColor"></path></g></svg>