<svg
  xmlns="http://www.w3.org/2000/svg"
  version="1.1"
  xmlns:xlink="http://www.w3.org/1999/xlink"
  width="512"
  height="512"
  x="0"
  y="0"
  viewBox="0 0 24 24"
  style="enable-background: new 0 0 512 512"
  xml:space="preserve"
  class=""
><g><path d="M22.15 20.12h-20a.75.75 0 1 1 0-1.5h20a.75.75 0 0 1 0 1.5z" fill="currentColor" opacity="1" data-original="currentColor"></path><path d="M9.57 20.12H5.62a.75.75 0 0 1-.53-.22l-3.38-3.38a2 2 0 0 1 0-2.9l9.14-9.14a2.09 2.09 0 0 1 2.9 0l4.44 4.44a2.05 2.05 0 0 1 .6 1.45 2.09 2.09 0 0 1-.6 1.45L10.1 19.9a.75.75 0 0 1-.53.22zm-3.64-1.5h3.33l7.86-7.86a.56.56 0 0 0 .17-.39.52.52 0 0 0-.17-.39l-4.43-4.44a.56.56 0 0 0-.78 0l-9.14 9.14a.54.54 0 0 0-.17.39.52.52 0 0 0 .17.39z" fill="currentColor" opacity="1" data-original="currentColor"></path><path d="M13.08 16.61a.79.79 0 0 1-.53-.22l-6.27-6.28a.74.74 0 0 1 0-1.06.75.75 0 0 1 1.06 0l6.27 6.28a.74.74 0 0 1 0 1.06.77.77 0 0 1-.53.22z" fill="currentColor" opacity="1" data-original="currentColor"></path></g></svg>
