<svg xmlns="http://www.w3.org/2000/svg" version="1.1" xmlns:xlink="http://www.w3.org/1999/xlink" width="512" height="512" x="0" y="0" viewBox="0 0 512 512" style="enable-background:new 0 0 512 512" xml:space="preserve" class=""><g><path fill="#2a2faf" d="M32 96h448v320H32z" opacity="1" data-original="#2a2faf" class=""></path><g fill-rule="evenodd" clip-rule="evenodd"><path fill="#e92b2b" d="M34.596 96 480 406.044V416h-14.703L32 114.384V96z" opacity="1" data-original="#e92b2b" class=""></path><path fill="#fbfbfb" d="M450.793 416 32 124.48v-10.096L465.297 416zM49.099 96 480 395.948v10.096L34.596 96z" opacity="1" data-original="#fbfbfb" class=""></path><path fill="#e92b2b" d="M32 406.044V416h14.703L480 114.384V96h-2.596z" opacity="1" data-original="#e92b2b" class=""></path><path fill="#fbfbfb" d="M480 124.48v-10.096L46.703 416h14.504zM32 395.948v10.096L477.404 96h-14.503z" opacity="1" data-original="#fbfbfb" class=""></path><path fill="#fbfbfb" d="M57.136 96 480 390.232v20.188L32 98.699V96z" opacity="1" data-original="#fbfbfb" class=""></path><path fill="#fbfbfb" d="M32 390.232v20.188L480 98.699V96h-25.136z" opacity="1" data-original="#fbfbfb" class=""></path><path fill="#e92b2b" d="M280 96h-48v134.737H32v50.526h200V416h48V281.263h200v-50.526H280z" opacity="1" data-original="#e92b2b" class=""></path><path fill="#fbfbfb" d="M32 222.316h192V96h16v143.158H32zM224 416V289.684H32v-16.842h208V416zm256-126.316H288V416h-16V272.842h208zM288 96v126.316h192v16.842H272V96z" opacity="1" data-original="#fbfbfb" class=""></path></g></g></svg>