<svg
  xmlns="http://www.w3.org/2000/svg"
  version="1.1"
  xmlns:xlink="http://www.w3.org/1999/xlink"
  width="512"
  height="512"
  x="0"
  y="0"
  viewBox="0 0 24 24"
  style="enable-background: new 0 0 512 512"
  xml:space="preserve"
  class=""
><g><path d="M15.3 15.62A6.93 6.93 0 0 1 10.41 3.8a6.93 6.93 0 0 1 11.82 4.9 6.84 6.84 0 0 1-2 4.89 6.86 6.86 0 0 1-4.93 2.03zm0-12.35a5.43 5.43 0 1 0 3.84 1.59 5.37 5.37 0 0 0-3.84-1.59zM4 22.23a2 2 0 0 1-1.42-.58l-.22-.22a2 2 0 0 1 0-2.83l3-3a2 2 0 0 1 2.83 0l.22.22a2 2 0 0 1 0 2.83l-3 3a2 2 0 0 1-1.41.58zm2.78-5.71a.54.54 0 0 0-.36.14l-3 3a.5.5 0 0 0 0 .71l.21.21a.5.5 0 0 0 .71 0l3-3a.51.51 0 0 0 0-.71l-.22-.22a.54.54 0 0 0-.35-.13z" fill="currentColor" opacity="1" data-original="currentColor"></path><path d="M7.76 17a.74.74 0 0 1-.53-.22.75.75 0 0 1 0-1.06l3.18-3.18a.75.75 0 1 1 1.06 1.06l-3.18 3.17a.74.74 0 0 1-.53.23z" fill="currentColor" opacity="1" data-original="currentColor"></path></g></svg>
