<svg
  xmlns="http://www.w3.org/2000/svg"
  version="1.1"
  xmlns:xlink="http://www.w3.org/1999/xlink"
  width="512"
  height="512"
  x="0"
  y="0"
  viewBox="0 0 24 24"
  style="enable-background: new 0 0 512 512"
  xml:space="preserve"
  class=""
><g><path d="M14.25 22.75h-4.5A.76.76 0 0 1 9 22v-1.25a7.75 7.75 0 0 1-1.07-.44l-.88.88a.77.77 0 0 1-1.06 0L2.81 18a.75.75 0 0 1 0-1.06l.88-.88A9.23 9.23 0 0 1 3.25 15H2a.76.76 0 0 1-.75-.75v-4.5A.76.76 0 0 1 2 9h1.25a9.23 9.23 0 0 1 .44-1.07l-.88-.88a.75.75 0 0 1 0-1.05L6 2.81a.75.75 0 0 1 .53-.22.75.75 0 0 1 .53.22l.88.88A9.23 9.23 0 0 1 9 3.25V2a.76.76 0 0 1 .75-.75h4.5A.76.76 0 0 1 15 2v1.25a9.23 9.23 0 0 1 1.07.44l.93-.88a.77.77 0 0 1 1.06 0L21.19 6a.75.75 0 0 1 0 1.06l-.88.88A7.75 7.75 0 0 1 20.75 9H22a.76.76 0 0 1 .75.75v4.5A.76.76 0 0 1 22 15h-1.25a7.75 7.75 0 0 1-.44 1.07l.88.88a.75.75 0 0 1 0 1.06L18 21.19a.75.75 0 0 1-.53.22.75.75 0 0 1-.53-.22l-.88-.88a7.75 7.75 0 0 1-1.07.44V22a.76.76 0 0 1-.74.75Zm-3.75-1.5h3v-1.06a.76.76 0 0 1 .56-.73 6.51 6.51 0 0 0 1.75-.72.75.75 0 0 1 .92.11l.75.75 2.12-2.12-.75-.75a.75.75 0 0 1-.11-.92 6.51 6.51 0 0 0 .72-1.75.76.76 0 0 1 .73-.56h1.06v-3h-1.06a.76.76 0 0 1-.73-.56 6.51 6.51 0 0 0-.72-1.75.75.75 0 0 1 .11-.92l.75-.75-2.12-2.12-.75.75a.75.75 0 0 1-.92.11 6.51 6.51 0 0 0-1.75-.72.76.76 0 0 1-.56-.73V2.75h-3v1.06a.76.76 0 0 1-.56.73 6.51 6.51 0 0 0-1.75.72.75.75 0 0 1-.92-.11l-.75-.75L4.4 6.52l.75.75a.75.75 0 0 1 .11.92 6.51 6.51 0 0 0-.72 1.75.76.76 0 0 1-.73.56H2.75v3h1.06a.76.76 0 0 1 .73.56 6.51 6.51 0 0 0 .72 1.75.75.75 0 0 1-.11.92l-.75.75 2.12 2.12.75-.75a.75.75 0 0 1 .92-.11 6.51 6.51 0 0 0 1.75.72.76.76 0 0 1 .56.73Z" fill="currentColor" opacity="1" data-original="currentColor"></path><path d="M12 16.5a4.5 4.5 0 1 1 4.5-4.5 4.51 4.51 0 0 1-4.5 4.5ZM12 9a3 3 0 1 0 3 3 3 3 0 0 0-3-3Z" fill="currentColor" opacity="1" data-original="currentColor"></path></g></svg>
